<svg width="32" height="36" viewBox="0 0 32 36" fill="none" xmlns="http://www.w3.org/2000/svg">
<path d="M18.744 29.25H20.4226C20.6452 29.25 20.8587 29.1611 21.0161 29.0029C21.1735 28.8446 21.2619 28.63 21.2619 28.4062V13.2188C21.2619 12.995 21.1735 12.7804 21.0161 12.6221C20.8587 12.4639 20.6452 12.375 20.4226 12.375H18.744C18.5215 12.375 18.308 12.4639 18.1506 12.6221C17.9932 12.7804 17.9048 12.995 17.9048 13.2188V28.4062C17.9048 28.63 17.9932 28.8446 18.1506 29.0029C18.308 29.1611 18.5215 29.25 18.744 29.25ZM30.2143 5.625H24.4505L22.0725 1.63828C21.7741 1.13837 21.3519 0.724705 20.8472 0.437595C20.3424 0.150485 19.7723 -0.00027727 19.1924 3.82814e-07H12.141C11.5613 -3.43666e-05 10.9914 0.150843 10.4869 0.437941C9.98246 0.72504 9.56052 1.13857 9.26222 1.63828L6.88284 5.625H1.11905C0.822258 5.625 0.537624 5.74353 0.327761 5.95451C0.117899 6.16548 0 6.45163 0 6.75L0 7.875C0 8.17337 0.117899 8.45952 0.327761 8.6705C0.537624 8.88147 0.822258 9 1.11905 9H2.2381V32.625C2.2381 33.5201 2.59179 34.3786 3.22138 35.0115C3.85097 35.6444 4.70487 36 5.59524 36H25.7381C26.6285 36 27.4824 35.6444 28.112 35.0115C28.7415 34.3786 29.0952 33.5201 29.0952 32.625V9H30.2143C30.5111 9 30.7957 8.88147 31.0056 8.6705C31.2154 8.45952 31.3333 8.17337 31.3333 7.875V6.75C31.3333 6.45163 31.2154 6.16548 31.0056 5.95451C30.7957 5.74353 30.5111 5.625 30.2143 5.625ZM12.0186 3.57961C12.056 3.51703 12.1089 3.46527 12.1721 3.42941C12.2354 3.39354 12.3068 3.3748 12.3795 3.375H18.9539C19.0264 3.37492 19.0977 3.39372 19.1608 3.42958C19.2239 3.46544 19.2767 3.51713 19.3141 3.57961L20.5352 5.625H10.7981L12.0186 3.57961ZM25.7381 32.625H5.59524V9H25.7381V32.625ZM10.9107 29.25H12.5893C12.8119 29.25 13.0254 29.1611 13.1827 29.0029C13.3401 28.8446 13.4286 28.63 13.4286 28.4062V13.2188C13.4286 12.995 13.3401 12.7804 13.1827 12.6221C13.0254 12.4639 12.8119 12.375 12.5893 12.375H10.9107C10.6881 12.375 10.4746 12.4639 10.3173 12.6221C10.1599 12.7804 10.0714 12.995 10.0714 13.2188V28.4062C10.0714 28.63 10.1599 28.8446 10.3173 29.0029C10.4746 29.1611 10.6881 29.25 10.9107 29.25Z" fill="#B80D57"/>
</svg>
