<svg width="41" height="36" viewBox="0 0 41 36" fill="none" xmlns="http://www.w3.org/2000/svg">
<path d="M28.4521 24.2504L30.7153 22.0004C31.0689 21.6489 31.6842 21.895 31.6842 22.4012V32.6247C31.6842 34.4879 30.1636 35.9997 28.2895 35.9997H3.39474C1.52056 35.9997 0 34.4879 0 32.6247V7.87466C0 6.01138 1.52056 4.49966 3.39474 4.49966H22.7377C23.2398 4.49966 23.4944 5.10434 23.1408 5.46294L20.8776 7.71294C20.7715 7.81841 20.6301 7.87466 20.4745 7.87466H3.39474V32.6247H28.2895V24.6442C28.2895 24.4965 28.346 24.3559 28.4521 24.2504ZM39.5275 10.0614L20.9554 28.5254L14.562 29.2286C12.709 29.4325 11.1319 27.8786 11.337 26.0223L12.0442 19.6661L30.6163 1.202C32.2359 -0.408154 34.8526 -0.408154 36.4651 1.202L39.5204 4.2395C41.14 5.84966 41.14 8.45825 39.5275 10.0614ZM32.54 12.234L28.4309 8.14888L15.2905 21.22L14.7742 25.8114L19.3924 25.2981L32.54 12.234ZM37.1229 6.63013L34.0676 3.59263C33.7776 3.30435 33.3038 3.30435 33.0209 3.59263L30.8355 5.76528L34.9446 9.85044L37.1299 7.67778C37.4128 7.38247 37.4128 6.91841 37.1229 6.63013Z" fill="#03C383"/>
</svg>
