<svg width="60" height="60" viewBox="0 0 60 60" fill="none" xmlns="http://www.w3.org/2000/svg">
<path d="M58.8615 18.7152L31.4396 0.433962C30.5037 -0.142014 29.5048 -0.147288 28.5602 0.433962L1.13836 18.7152C0.435234 19.1838 0 20.021 0 20.858V39.1391C0 39.9762 0.435234 40.8133 1.13848 41.282L28.5604 59.5658C29.4963 60.1418 30.4952 60.1471 31.4398 59.5658L58.8616 41.282C59.5648 40.8134 60.0001 39.9762 60.0001 39.1391V20.858C60 20.021 59.5648 19.1838 58.8615 18.7152ZM32.5781 7.39806L52.7679 20.858L43.7612 26.8848L32.5781 19.4182V7.39806ZM27.4219 7.39806V19.4182L16.2388 26.8848L7.23211 20.858L27.4219 7.39806ZM5.15625 25.6794L11.6183 29.9986L5.15625 34.3178V25.6794ZM27.4219 52.5992L7.23211 39.1392L16.2388 33.1124L27.4219 40.579V52.5992ZM30 36.0924L20.8928 29.9986L30 23.9049L39.1072 29.9986L30 36.0924ZM32.5781 52.5992V40.579L43.7612 33.1124L52.7679 39.1392L32.5781 52.5992ZM54.8438 34.3178L48.3817 29.9986L54.8438 25.6794V34.3178Z" fill="#1C1C1D"/>
</svg>