<svg width="53" height="54" viewBox="0 0 53 54" fill="none" xmlns="http://www.w3.org/2000/svg">
<path d="M47.3216 0.75H5.67869C2.54365 0.75 0.00012207 3.26953 0.00012207 6.375V47.625C0.00012207 50.7305 2.54365 53.25 5.67869 53.25H47.3216C50.4566 53.25 53.0001 50.7305 53.0001 47.625V6.375C53.0001 3.26953 50.4566 0.75 47.3216 0.75ZM41.5365 19.3594C41.5602 19.6875 41.5602 20.0273 41.5602 20.3555C41.5602 30.5156 33.7521 42.2227 19.4847 42.2227C15.0838 42.2227 11.0024 40.957 7.57155 38.7773C8.19856 38.8477 8.80191 38.8711 9.44075 38.8711C13.0727 38.8711 16.4088 37.6523 19.0707 35.5898C15.6635 35.5195 12.8006 33.3047 11.8186 30.2578C13.0135 30.4336 14.0901 30.4336 15.3204 30.1172C11.7713 29.4023 9.1095 26.3086 9.1095 22.5703V22.4766C10.1387 23.0508 11.3454 23.4023 12.6113 23.4492C11.5471 22.748 10.6746 21.7967 10.0719 20.6803C9.46909 19.5638 9.15473 18.3169 9.15682 17.0508C9.15682 15.6211 9.53539 14.3086 10.2097 13.1719C14.0309 17.8359 19.7687 20.8828 26.2044 21.2109C25.1041 15.9961 29.0436 11.7656 33.7758 11.7656C36.0117 11.7656 38.0229 12.6914 39.4425 14.1914C41.1934 13.8633 42.8733 13.2187 44.364 12.3398C43.7843 14.1211 42.5658 15.6211 40.9568 16.5703C42.5184 16.4062 44.0327 15.9727 45.4287 15.375C44.3758 16.9102 43.0508 18.2695 41.5365 19.3594Z" fill="#1C1C1D"/>
</svg>
