<svg width="58" height="58" viewBox="0 0 58 58" fill="none" xmlns="http://www.w3.org/2000/svg">
<path d="M19.3996 46.5703C19.3996 46.8047 19.1306 46.9922 18.7915 46.9922C18.4056 47.0273 18.1367 46.8398 18.1367 46.5703C18.1367 46.3359 18.4056 46.1484 18.7448 46.1484C19.0956 46.1133 19.3996 46.3008 19.3996 46.5703ZM15.7629 46.043C15.681 46.2773 15.9149 46.5469 16.2657 46.6172C16.5698 46.7344 16.9206 46.6172 16.9907 46.3828C17.0609 46.1484 16.8387 45.8789 16.4879 45.7734C16.1839 45.6914 15.8448 45.8086 15.7629 46.043ZM20.9315 45.8438C20.5923 45.9258 20.3585 46.1484 20.3935 46.418C20.4286 46.6523 20.7327 46.8047 21.0835 46.7227C21.4226 46.6406 21.6565 46.418 21.6214 46.1836C21.5863 45.9609 21.2706 45.8086 20.9315 45.8438ZM28.6258 0.9375C12.4069 0.9375 0 13.2773 0 29.5312C0 42.5273 8.1621 53.6484 19.8206 57.5625C21.3173 57.832 21.8435 56.9062 21.8435 56.1445C21.8435 55.418 21.8085 51.4102 21.8085 48.9492C21.8085 48.9492 13.623 50.707 11.904 45.457C11.904 45.457 10.571 42.0469 8.65323 41.168C8.65323 41.168 5.9754 39.3281 8.84032 39.3633C8.84032 39.3633 11.752 39.5977 13.354 42.3867C15.9149 46.9102 20.2065 45.6094 21.8786 44.8359C22.1476 42.9609 22.9077 41.6602 23.7496 40.8867C17.2129 40.1602 10.6177 39.2109 10.6177 27.9375C10.6177 24.7148 11.5065 23.0977 13.3774 21.0352C13.0734 20.2734 12.0794 17.1328 13.6815 13.0781C16.1254 12.3164 21.75 16.2422 21.75 16.2422C24.0887 15.5859 26.6028 15.2461 29.0935 15.2461C31.5843 15.2461 34.0984 15.5859 36.4371 16.2422C36.4371 16.2422 42.0617 12.3047 44.5056 13.0781C46.1077 17.1445 45.1137 20.2734 44.8097 21.0352C46.6806 23.1094 47.8266 24.7266 47.8266 27.9375C47.8266 39.2461 40.9391 40.1484 34.4024 40.8867C35.4782 41.8125 36.3903 43.5703 36.3903 46.3242C36.3903 50.2734 36.3552 55.1602 36.3552 56.1211C36.3552 56.8828 36.8931 57.8086 38.3782 57.5391C50.0718 53.6484 58 42.5273 58 29.5312C58 13.2773 44.8448 0.9375 28.6258 0.9375ZM11.3661 41.3555C11.2141 41.4727 11.2492 41.7422 11.448 41.9648C11.6351 42.1523 11.904 42.2344 12.056 42.082C12.2081 41.9648 12.173 41.6953 11.9742 41.4727C11.7871 41.2852 11.5181 41.2031 11.3661 41.3555ZM10.1032 40.4062C10.0214 40.5586 10.1383 40.7461 10.3722 40.8633C10.5593 40.9805 10.7931 40.9453 10.875 40.7812C10.9569 40.6289 10.8399 40.4414 10.606 40.3242C10.3722 40.2539 10.1851 40.2891 10.1032 40.4062ZM13.8919 44.5781C13.7048 44.7305 13.775 45.082 14.044 45.3047C14.3129 45.5742 14.652 45.6094 14.804 45.4219C14.956 45.2695 14.8859 44.918 14.652 44.6953C14.3948 44.4258 14.044 44.3906 13.8919 44.5781ZM12.5589 42.8555C12.3718 42.9727 12.3718 43.2773 12.5589 43.5469C12.746 43.8164 13.0617 43.9336 13.2137 43.8164C13.4008 43.6641 13.4008 43.3594 13.2137 43.0898C13.05 42.8203 12.746 42.7031 12.5589 42.8555Z" fill="#1C1C1D"/>
</svg>
